<svg xmlns="http://www.w3.org/2000/svg" width="16" height="15.91" viewBox="0 0 16 15.91">
  <metadata><?xpacket begin="﻿" id="W5M0MpCehiHzreSzNTczkc9d"?>
<x:xmpmeta xmlns:x="adobe:ns:meta/" x:xmptk="Adobe XMP Core 5.6-c138 79.159824, 2016/09/14-01:09:01        ">
   <rdf:RDF xmlns:rdf="http://www.w3.org/1999/02/22-rdf-syntax-ns#">
      <rdf:Description rdf:about=""/>
   </rdf:RDF>
</x:xmpmeta>
                                                                                                    
                                                                                                    
                                                                                                    
                                                                                                    
                                                                                                    
                                                                                                    
                                                                                                    
                                                                                                    
                                                                                                    
                                                                                                    
                                                                                                    
                                                                                                    
                                                                                                    
                                                                                                    
                                                                                                    
                                                                                                    
                                                                                                    
                                                                                                    
                                                                                                    
                                                                                                    
                           
<?xpacket end="w"?></metadata>
<defs>
    <style>
      .cls-1 {
        fill: #2b7af3;
        fill-rule: evenodd;
      }
    </style>
  </defs>
  <path id="arrow_simple_2" class="cls-1" d="M215,4328.09c0-.03,0-0.06,0-0.1a1.1,1.1,0,0,0-.048-0.25c-0.011-.03-0.021-0.06-0.035-0.09a1.016,1.016,0,0,0-.2-0.3l-3-2.98a1,1,0,0,0-1.414,0,0.982,0.982,0,0,0,0,1.4l1.3,1.29C199.145,4327.31,199,4338.88,199,4339a1,1,0,0,0,2,0c0-.4.129-9.69,10.577-9.94l-1.281,1.28a0.995,0.995,0,0,0,1.414,1.4l3-2.98c0.009-.01.012-0.02,0.021-0.03a1.045,1.045,0,0,0,.2-0.29v-0.01a0.041,0.041,0,0,1,.007-0.02A1.035,1.035,0,0,0,215,4328.09Z" transform="translate(-199 -4324.09)"/>
</svg>
