<svg xmlns="http://www.w3.org/2000/svg" width="13.781" height="15.62" viewBox="0 0 13.781 15.62">
  <metadata><?xpacket begin="﻿" id="W5M0MpCehiHzreSzNTczkc9d"?>
<x:xmpmeta xmlns:x="adobe:ns:meta/" x:xmptk="Adobe XMP Core 5.6-c138 79.159824, 2016/09/14-01:09:01        ">
   <rdf:RDF xmlns:rdf="http://www.w3.org/1999/02/22-rdf-syntax-ns#">
      <rdf:Description rdf:about=""/>
   </rdf:RDF>
</x:xmpmeta>
                                                                                                    
                                                                                                    
                                                                                                    
                                                                                                    
                                                                                                    
                                                                                                    
                                                                                                    
                                                                                                    
                                                                                                    
                                                                                                    
                                                                                                    
                                                                                                    
                                                                                                    
                                                                                                    
                                                                                                    
                                                                                                    
                                                                                                    
                                                                                                    
                                                                                                    
                                                                                                    
                           
<?xpacket end="w"?></metadata>
<defs>
    <style>
      .cls-1 {
        fill: #2b7af3;
        fill-rule: evenodd;
      }
    </style>
  </defs>
  <path id="power" class="cls-1" d="M967.572,5171.39a0.972,0.972,0,0,0-1.594.75v0.01a1.021,1.021,0,0,0,.354.75,4.92,4.92,0,1,1-6.613,0,1.022,1.022,0,0,0,.355-0.75,0.969,0.969,0,0,0-.984-0.97,1.016,1.016,0,0,0-.67.25,6.861,6.861,0,1,0,11.494,5.08A6.77,6.77,0,0,0,967.572,5171.39Zm-4.546,5.12h0a0.982,0.982,0,0,1-.984-0.97v-6.84a0.984,0.984,0,0,1,.984-0.98h0a0.984,0.984,0,0,1,.984.98v6.84A0.982,0.982,0,0,1,963.026,5176.51Z" transform="translate(-956.125 -5167.72)"/>
</svg>
