<svg xmlns="http://www.w3.org/2000/svg" width="16" height="14" viewBox="0 0 16 14">
  <metadata><?xpacket begin="﻿" id="W5M0MpCehiHzreSzNTczkc9d"?>
<x:xmpmeta xmlns:x="adobe:ns:meta/" x:xmptk="Adobe XMP Core 5.6-c138 79.159824, 2016/09/14-01:09:01        ">
   <rdf:RDF xmlns:rdf="http://www.w3.org/1999/02/22-rdf-syntax-ns#">
      <rdf:Description rdf:about=""/>
   </rdf:RDF>
</x:xmpmeta>
                                                                                                    
                                                                                                    
                                                                                                    
                                                                                                    
                                                                                                    
                                                                                                    
                                                                                                    
                                                                                                    
                                                                                                    
                                                                                                    
                                                                                                    
                                                                                                    
                                                                                                    
                                                                                                    
                                                                                                    
                                                                                                    
                                                                                                    
                                                                                                    
                                                                                                    
                                                                                                    
                           
<?xpacket end="w"?></metadata>
<defs>
    <style>
      .cls-1 {
        fill: #2b7af3;
        fill-rule: evenodd;
      }
    </style>
  </defs>
  <path id="cloud_up" class="cls-1" d="M214.79,4275.32a3.481,3.481,0,0,0-2.55-2.24A5.951,5.951,0,0,0,207,4270a6.032,6.032,0,0,0-4.5,2.03,4,4,0,0,0-2.178,6.94,1,1,0,0,0,1.678-.74v-0.01a0.955,0.955,0,0,0-.323-0.72A2,2,0,0,1,203,4274a1.7,1.7,0,0,1,.5.07,3.994,3.994,0,0,1,7.4,1.06,1.35,1.35,0,0,1,.6-0.13,1.5,1.5,0,0,1,1.41,1,1.386,1.386,0,0,1,.09.5,1.51,1.51,0,0,1-.564,1.17,1.05,1.05,0,0,0-.436.82,1,1,0,0,0,1.628.78A3.484,3.484,0,0,0,215,4276.5,3.373,3.373,0,0,0,214.79,4275.32Zm-9.083,3.39,0.293-.3V4283a1,1,0,0,0,2,0v-4.59l0.293,0.3a1,1,0,0,0,1.414-1.42l-2-2a1.01,1.01,0,0,0-1.414,0l-2,2A1,1,0,0,0,205.707,4278.71Z" transform="translate(-199 -4270)"/>
</svg>
