<svg xmlns="http://www.w3.org/2000/svg" width="16.157" height="15.57" viewBox="0 0 16.157 15.57">
  <metadata><?xpacket begin="﻿" id="W5M0MpCehiHzreSzNTczkc9d"?>
<x:xmpmeta xmlns:x="adobe:ns:meta/" x:xmptk="Adobe XMP Core 5.6-c138 79.159824, 2016/09/14-01:09:01        ">
   <rdf:RDF xmlns:rdf="http://www.w3.org/1999/02/22-rdf-syntax-ns#">
      <rdf:Description rdf:about=""/>
   </rdf:RDF>
</x:xmpmeta>
                                                                                                    
                                                                                                    
                                                                                                    
                                                                                                    
                                                                                                    
                                                                                                    
                                                                                                    
                                                                                                    
                                                                                                    
                                                                                                    
                                                                                                    
                                                                                                    
                                                                                                    
                                                                                                    
                                                                                                    
                                                                                                    
                                                                                                    
                                                                                                    
                                                                                                    
                                                                                                    
                           
<?xpacket end="w"?></metadata>
<defs>
    <style>
      .cls-1 {
        fill: #2b7af3;
        fill-rule: evenodd;
      }
    </style>
  </defs>
  <path id="mail_tag" class="cls-1" d="M969.948,2733.57a7.531,7.531,0,0,0-1.605-4.35,8.224,8.224,0,0,0-8.12-2.97,7.773,7.773,0,0,0,1.662,15.42,8.324,8.324,0,0,0,3.535-.79,0.951,0.951,0,0,0,.23-1.55h0a1.006,1.006,0,0,0-1.116-.2,6.21,6.21,0,0,1-3.554.53,5.832,5.832,0,0,1,.9-11.62,6.133,6.133,0,0,1,3.633,1.18,5.709,5.709,0,0,1,1.614,1.75,5.633,5.633,0,0,1,.808,2.91,1.01,1.01,0,0,1-2.019,0,3.873,3.873,0,0,0-2.411-3.55,4.184,4.184,0,0,0-2.827-.18,3.883,3.883,0,0,0,1.2,7.62,4.174,4.174,0,0,0,3.229-1.56,3.078,3.078,0,0,0,1.817.59,1.288,1.288,0,0,0,.2-0.01,3.008,3.008,0,0,0,2.816-2.6c0-.1.01-0.2,0.01-0.31S969.948,2733.67,969.948,2733.57Zm-7.659,2.22a1.787,1.787,0,0,1-.4.04,1.951,1.951,0,1,1,0-3.9,1.787,1.787,0,0,1,.4.04A1.937,1.937,0,0,1,962.289,2735.79Z" transform="translate(-953.812 -2726.09)"/>
</svg>
