<svg xmlns="http://www.w3.org/2000/svg" width="15.876" height="16" viewBox="0 0 15.876 16">
  <metadata><?xpacket begin="﻿" id="W5M0MpCehiHzreSzNTczkc9d"?>
<x:xmpmeta xmlns:x="adobe:ns:meta/" x:xmptk="Adobe XMP Core 5.6-c138 79.159824, 2016/09/14-01:09:01        ">
   <rdf:RDF xmlns:rdf="http://www.w3.org/1999/02/22-rdf-syntax-ns#">
      <rdf:Description rdf:about=""/>
   </rdf:RDF>
</x:xmpmeta>
                                                                                                    
                                                                                                    
                                                                                                    
                                                                                                    
                                                                                                    
                                                                                                    
                                                                                                    
                                                                                                    
                                                                                                    
                                                                                                    
                                                                                                    
                                                                                                    
                                                                                                    
                                                                                                    
                                                                                                    
                                                                                                    
                                                                                                    
                                                                                                    
                                                                                                    
                                                                                                    
                           
<?xpacket end="w"?></metadata>
<defs>
    <style>
      .cls-1 {
        fill: #2b7af3;
        fill-rule: evenodd;
      }
    </style>
  </defs>
  <path id="bag_4" class="cls-1" d="M211.439,1899.68a1.988,1.988,0,0,0-1.492-.68h-1.988a3.975,3.975,0,1,0-7.95,0h-1.988a1.987,1.987,0,0,0-1.49.68,2.007,2.007,0,0,0-.482,1.57l0.994,8a1.991,1.991,0,0,0,1.972,1.75h9.938a2,2,0,0,0,1.976-1.78l0.157-1.42,0.832-6.55A1.994,1.994,0,0,0,211.439,1899.68Zm-7.455-2.68a1.991,1.991,0,0,1,1.988,2H202A1.99,1.99,0,0,1,203.984,1897Zm4.969,12h-9.938l-0.994-8h11.926l-0.837,6.58Zm-2.981-6a1,1,0,0,0-.994,1,0.994,0.994,0,1,1-1.988,0,0.994,0.994,0,1,0-1.987,0,2.982,2.982,0,1,0,5.963,0A1,1,0,0,0,205.972,1903Z" transform="translate(-196.062 -1895)"/>
</svg>
