<svg xmlns="http://www.w3.org/2000/svg" width="16" height="16" viewBox="0 0 16 16">
  <metadata><?xpacket begin="﻿" id="W5M0MpCehiHzreSzNTczkc9d"?>
<x:xmpmeta xmlns:x="adobe:ns:meta/" x:xmptk="Adobe XMP Core 5.6-c138 79.159824, 2016/09/14-01:09:01        ">
   <rdf:RDF xmlns:rdf="http://www.w3.org/1999/02/22-rdf-syntax-ns#">
      <rdf:Description rdf:about=""/>
   </rdf:RDF>
</x:xmpmeta>
                                                                                                    
                                                                                                    
                                                                                                    
                                                                                                    
                                                                                                    
                                                                                                    
                                                                                                    
                                                                                                    
                                                                                                    
                                                                                                    
                                                                                                    
                                                                                                    
                                                                                                    
                                                                                                    
                                                                                                    
                                                                                                    
                                                                                                    
                                                                                                    
                                                                                                    
                                                                                                    
                           
<?xpacket end="w"?></metadata>
<defs>
    <style>
      .cls-1 {
        fill: #2b7af3;
        fill-rule: evenodd;
      }
    </style>
  </defs>
  <path id="message_2_accept" class="cls-1" d="M971,5285v10h-7.6l-2.4,2v-2h-2v-10h12Zm0-2H959a2,2,0,0,0-2,2v10a11.379,11.379,0,0,1,3.151,3.81,1.95,1.95,0,0,0,.849.19,2.021,2.021,0,0,0,1.278-.46l1.85-1.54H971a2,2,0,0,0,2-2v-10a2,2,0,0,0-2-2h0Zm-7,10a1.016,1.016,0,0,1-.707-0.29l-2-2a1,1,0,0,1,1.414-1.42l1.293,1.3,3.293-3.3a1,1,0,0,1,1.414,1.42l-4,4A1.016,1.016,0,0,1,964,5293Z" transform="translate(-957 -5283)"/>
</svg>
