<svg xmlns="http://www.w3.org/2000/svg" width="16" height="16" viewBox="0 0 16 16">
  <metadata><?xpacket begin="﻿" id="W5M0MpCehiHzreSzNTczkc9d"?>
<x:xmpmeta xmlns:x="adobe:ns:meta/" x:xmptk="Adobe XMP Core 5.6-c138 79.159824, 2016/09/14-01:09:01        ">
   <rdf:RDF xmlns:rdf="http://www.w3.org/1999/02/22-rdf-syntax-ns#">
      <rdf:Description rdf:about=""/>
   </rdf:RDF>
</x:xmpmeta>
                                                                                                    
                                                                                                    
                                                                                                    
                                                                                                    
                                                                                                    
                                                                                                    
                                                                                                    
                                                                                                    
                                                                                                    
                                                                                                    
                                                                                                    
                                                                                                    
                                                                                                    
                                                                                                    
                                                                                                    
                                                                                                    
                                                                                                    
                                                                                                    
                                                                                                    
                                                                                                    
                           
<?xpacket end="w"?></metadata>
<defs>
    <style>
      .cls-1 {
        fill: #657b95;
        fill-rule: evenodd;
      }
    </style>
  </defs>
  <path id="message_open_2" class="cls-1" d="M766,6550l6,4v8H760v-8l6-4m0-2a1.957,1.957,0,0,0-1.11.34l-6,4A1.989,1.989,0,0,0,758,6554v8a2,2,0,0,0,2,2h12a2,2,0,0,0,2-2v-8a1.989,1.989,0,0,0-.891-1.66l-6-4A1.953,1.953,0,0,0,766,6548h0Zm0,12a1.022,1.022,0,0,1-.6-0.2l-4-3a1,1,0,0,1,1.2-1.6l3.4,2.55,3.4-2.55a1,1,0,1,1,1.2,1.6l-4,3A1.017,1.017,0,0,1,766,6560Z" transform="translate(-758 -6548)"/>
</svg>
